<svg aria-hidden="true" style="position: absolute; width: 0; height: 0; overflow: hidden;" version="1.1" xmlns="http://www.w3.org/2000/svg" xmlns:xlink="http://www.w3.org/1999/xlink">
<defs>
<symbol id="icon-compare" viewBox="0 0 32 32">
<path d="M2.883 32l8.507-8.507c2.148 1.569 4.788 2.507 7.652 2.507 7.18 0 13-5.82 13-13s-5.82-13-13-13c-7.18 0-13 5.82-13 13 0 2.843 0.923 5.465 2.471 7.604l-8.513 8.513 2.883 2.883zM19.042 22.476c-5.233 0-9.476-4.243-9.476-9.476s4.243-9.476 9.476-9.476c5.233 0 9.476 4.243 9.476 9.476s-4.242 9.476-9.476 9.476z"></path>
<path d="M24.021 8h-10l-2 4 7 8 7-8-2-4z"></path>
</symbol>
<symbol id="icon-library_books" viewBox="0 0 32 32">
<path fill="#444b53" style="fill: var(--color1, #444b53)" d="M4 8c-0.733 0-1.333 0.6-1.333 1.333v17.333c0 1.467 1.2 2.667 2.667 2.667h17.333c0.733 0 1.333-0.6 1.333-1.333s-0.6-1.333-1.333-1.333h-16c-0.733 0-1.333-0.6-1.333-1.333v-16c0-0.733-0.6-1.333-1.333-1.333zM26.667 2.667h-16c-1.467 0-2.667 1.2-2.667 2.667v16c0 1.467 1.2 2.667 2.667 2.667h16c1.467 0 2.667-1.2 2.667-2.667v-16c0-1.467-1.2-2.667-2.667-2.667zM24 14.667h-10.667c-0.733 0-1.333-0.6-1.333-1.333s0.6-1.333 1.333-1.333h10.667c0.733 0 1.333 0.6 1.333 1.333s-0.6 1.333-1.333 1.333zM18.667 20h-5.333c-0.733 0-1.333-0.6-1.333-1.333s0.6-1.333 1.333-1.333h5.333c0.733 0 1.333 0.6 1.333 1.333s-0.6 1.333-1.333 1.333zM24 9.333h-10.667c-0.733 0-1.333-0.6-1.333-1.333s0.6-1.333 1.333-1.333h10.667c0.733 0 1.333 0.6 1.333 1.333s-0.6 1.333-1.333 1.333z"></path>
</symbol>
<symbol id="icon-squares" viewBox="0 0 32 32">
<path d="M20 12v-12h-20v20h12v12h20v-20h-12zM2 18v-16h16v16h-16zM30 30h-16v-10h6v-6h10v16z"></path>
</symbol>
<symbol id="icon-arrow-right" viewBox="0 0 32 32">
<path fill="#fff" style="fill: var(--color2, #fff)" d="M3.692 3.249v25.502c0 1.945 2.142 3.126 3.791 2.068l20.037-12.751c1.526-0.96 1.526-3.175 0-4.16l-20.037-12.726c-1.649-1.058-3.791 0.123-3.791 2.068z"></path>
</symbol>
<symbol id="icon-calendar" viewBox="0 0 32 32">
<path d="M27.801 4h-1.801v-4h-4v4h-12v-4h-4v4h-1.801c-2.319 0-4.199 1.88-4.199 4.199v19.603c0 2.318 1.88 4.198 4.199 4.198h23.603c2.318 0 4.198-1.88 4.198-4.199v-19.602c0-2.319-1.88-4.199-4.199-4.199zM28 28h-24v-16h24v16z"></path>
<path d="M15 16h-8v8h8v-8z"></path>
</symbol>
<symbol id="icon-build" viewBox="0 0 32 32">
<path d="M32 24h-4v-4h-4v4h-4v4h4v4h4v-4h4v-4z"></path>
<path d="M6 24h-2v-18h2v-2h18v2h2v12h2v-12h2v-6h-6v2h-18v-2h-6v6h2v18h-2v6h6v-2h12v-2h-12v-2zM26 2h2v2h-2v-2zM2 2h2v2h-2v-2zM4 28h-2v-2h2v2z"></path>
</symbol>
<symbol id="icon-spellcheck" viewBox="0 0 32 32">
<path d="M17.493 21.333c0.92 0 1.533-0.92 1.2-1.76l-5.667-14.413c-0.28-0.707-0.947-1.16-1.693-1.16s-1.413 0.453-1.693 1.16l-5.667 14.413c-0.333 0.84 0.293 1.76 1.2 1.76 0.533 0 1.013-0.333 1.213-0.84l1.173-3.16h7.52l1.2 3.173c0.2 0.493 0.68 0.827 1.213 0.827zM8.573 14.667l2.76-7.36 2.76 7.36h-5.52zM27.853 16.387l-9.853 9.853-3.96-3.96c-0.52-0.52-1.36-0.52-1.88 0s-0.52 1.36 0 1.88l4.907 4.907c0.52 0.52 1.36 0.52 1.88 0l10.773-10.787c0.52-0.52 0.52-1.36 0-1.88-0.507-0.52-1.36-0.52-1.867-0.013z"></path>
</symbol>
<symbol id="icon-Color-2" viewBox="0 0 32 32">
<path d="M2.462 3.897h9.846v9.846h-9.846v-9.846zM5.744 7.179v3.282h3.282v-3.282h-3.282zM15.59 7.179h16.41v3.282h-16.41v-3.282zM15.59 20.308h16.41v3.282h-16.41v-3.282zM5.744 28.513l-5.744-5.744 2.314-2.314 3.43 3.413 7.532-7.516 2.314 2.314-9.846 9.846z"></path>
</symbol>
<symbol id="icon-globe" viewBox="0 0 32 32">
<path fill="#fff" style="fill: var(--color2, #fff)" d="M16 0.64c-8.484 0-15.36 6.876-15.36 15.36s6.876 15.36 15.36 15.36c8.483 0 15.36-6.877 15.36-15.36s-6.877-15.36-15.36-15.36zM29.44 15.992c0 0.413-0.963 1.052-2.534 1.663 0.041-0.544 0.065-1.095 0.065-1.655 0-0.562-0.024-1.114-0.066-1.66 1.571 0.607 2.535 1.24 2.535 1.645 0.001 0.003 0.001 0.005 0.001 0.008zM16.015 29.44c0 0-0.005 0-0.008 0-0.413 0-1.052-0.963-1.663-2.534 0.544 0.041 1.095 0.065 1.655 0.065s1.114-0.024 1.66-0.066c-0.608 1.572-1.24 2.535-1.645 2.535zM16 25.052c-0.786 0-1.552-0.055-2.302-0.143-0.285-1.068-0.534-2.327-0.719-3.746 0.977 0.067 1.986 0.103 3.020 0.103 1.035 0 2.044-0.036 3.021-0.103-0.185 1.419-0.433 2.676-0.717 3.745-0.75 0.088-1.516 0.144-2.303 0.144zM16 19.347c-1.143 0-2.214-0.046-3.223-0.124-0.078-1.008-0.124-2.079-0.124-3.223s0.046-2.214 0.124-3.223c1.008-0.078 2.078-0.124 3.222-0.124s2.214 0.046 3.222 0.124c0.078 1.008 0.124 2.078 0.124 3.223 0 1.143-0.046 2.214-0.124 3.223-1.006 0.077-2.077 0.124-3.221 0.124zM2.56 16.015c0-0.003 0-0.005 0-0.008 0-0.413 0.963-1.052 2.534-1.663-0.042 0.544-0.066 1.095-0.066 1.655 0 0.562 0.024 1.114 0.066 1.66-1.571-0.607-2.534-1.24-2.534-1.645zM6.948 16c0-0.786 0.055-1.552 0.143-2.302 1.068-0.285 2.327-0.534 3.746-0.719-0.067 0.977-0.103 1.986-0.103 3.020 0 1.035 0.036 2.044 0.103 3.021-1.419-0.184-2.677-0.432-3.746-0.716-0.087-0.751-0.143-1.517-0.143-2.304zM16 2.562c0.414 0.097 1.048 0.972 1.655 2.532-0.544-0.041-1.095-0.066-1.655-0.066s-1.111 0.024-1.655 0.066c0.607-1.561 1.241-2.436 1.655-2.532zM16 6.948c0.786 0 1.552 0.055 2.301 0.142 0.285 1.068 0.534 2.326 0.719 3.746-0.977-0.067-1.986-0.103-3.020-0.103s-2.044 0.036-3.020 0.103c0.185-1.42 0.434-2.676 0.719-3.746 0.749-0.086 1.515-0.142 2.301-0.142zM21.163 12.979c1.419 0.185 2.676 0.433 3.745 0.717 0.088 0.75 0.143 1.517 0.143 2.304s-0.055 1.552-0.143 2.302c-1.068 0.285-2.327 0.534-3.746 0.719 0.067-0.977 0.103-1.986 0.103-3.020 0.002-1.036-0.035-2.045-0.102-3.022zM26.62 12.201c-0.133-0.733-0.294-1.452-0.499-2.138 1.116 0.862 1.991 1.866 2.561 2.967-0.601-0.301-1.296-0.578-2.062-0.829zM24.55 11.625c-1.096-0.252-2.299-0.453-3.571-0.603-0.15-1.272-0.35-2.475-0.603-3.571 1.115 0.259 2.17 0.607 3.131 1.044 0.436 0.96 0.783 2.015 1.043 3.13zM19.8 5.38c-0.252-0.766-0.528-1.461-0.829-2.062 1.102 0.57 2.105 1.445 2.967 2.561-0.687-0.205-1.405-0.366-2.138-0.499zM13.030 3.318c-0.301 0.601-0.578 1.296-0.829 2.062-0.733 0.133-1.452 0.294-2.138 0.499 0.862-1.116 1.866-1.991 2.967-2.561zM11.625 7.45c-0.252 1.096-0.453 2.299-0.603 3.571-1.272 0.15-2.475 0.35-3.571 0.603 0.259-1.115 0.607-2.17 1.044-3.131 0.96-0.436 2.014-0.783 3.13-1.044zM5.38 12.201c-0.766 0.252-1.461 0.528-2.062 0.829 0.57-1.102 1.445-2.105 2.561-2.967-0.205 0.686-0.366 1.404-0.499 2.138zM3.318 18.969c0.601 0.301 1.296 0.578 2.062 0.829 0.133 0.733 0.294 1.452 0.499 2.138-1.116-0.861-1.991-1.865-2.561-2.967zM7.45 20.375c1.096 0.253 2.299 0.453 3.571 0.603 0.15 1.272 0.35 2.475 0.603 3.571-1.115-0.259-2.17-0.607-3.131-1.045-0.436-0.96-0.783-2.014-1.044-3.13zM12.2 26.62c0.252 0.766 0.528 1.461 0.829 2.062-1.101-0.57-2.105-1.445-2.967-2.561 0.687 0.205 1.405 0.366 2.138 0.499zM18.97 28.682c0.301-0.601 0.578-1.296 0.829-2.062 0.733-0.133 1.452-0.294 2.138-0.499-0.862 1.116-1.866 1.991-2.967 2.561zM20.375 24.55c0.253-1.096 0.453-2.299 0.603-3.571 1.272-0.15 2.475-0.35 3.571-0.603-0.259 1.115-0.607 2.17-1.045 3.131-0.96 0.436-2.014 0.783-3.13 1.043zM26.62 19.799c0.766-0.252 1.461-0.528 2.062-0.829-0.57 1.102-1.445 2.105-2.561 2.967 0.205-0.686 0.366-1.404 0.499-2.138zM27.090 8.422c-0.662-0.494-1.389-0.943-2.17-1.342-0.399-0.781-0.848-1.507-1.342-2.17 1.377 0.944 2.568 2.135 3.512 3.512zM8.422 4.91c-0.494 0.662-0.943 1.389-1.342 2.17-0.781 0.399-1.507 0.848-2.17 1.342 0.944-1.377 2.135-2.568 3.512-3.512zM4.91 23.578c0.662 0.494 1.389 0.943 2.17 1.342 0.399 0.781 0.848 1.507 1.342 2.17-1.377-0.944-2.568-2.135-3.512-3.512zM23.578 27.090c0.494-0.662 0.943-1.388 1.342-2.17 0.781-0.399 1.507-0.848 2.17-1.342-0.944 1.377-2.135 2.568-3.512 3.512z"></path>
</symbol>
<symbol id="icon-Color" viewBox="0 0 32 32">
<path fill="#444b53" style="fill: var(--color1, #444b53)" d="M17.893 24.773l12.24-12.24c1.040-1.040 1.040-2.72 0-3.76s-2.72-1.040-3.76 0l-10.373 10.347-10.347-10.347c-1.040-1.040-2.72-1.040-3.76 0s-1.040 2.72 0 3.76l12.24 12.24c1.013 1.040 2.72 1.040 3.76 0z"></path>
</symbol>
</defs>
</svg>
